<svg width="63" height="498" viewBox="0 0 63 498" fill="none" xmlns="http://www.w3.org/2000/svg">
<path d="M6.432 18L11.616 5.4H13.056L18.204 18H15.972L11.94 7.794H12.696L8.628 18H6.432ZM8.988 15.57V13.77H15.666V15.57H8.988ZM23.2049 18.18C22.3529 18.18 21.5789 17.982 20.8829 17.586C20.1989 17.19 19.6589 16.65 19.2629 15.966C18.8669 15.282 18.6689 14.52 18.6689 13.68C18.6689 12.828 18.8669 12.066 19.2629 11.394C19.6589 10.71 20.1989 10.17 20.8829 9.774C21.5789 9.378 22.3529 9.18 23.2049 9.18C23.8769 9.18 24.5009 9.312 25.0769 9.576C25.6649 9.828 26.1629 10.194 26.5709 10.674L25.2749 11.988C25.0229 11.688 24.7169 11.466 24.3569 11.322C24.0089 11.166 23.6249 11.088 23.2049 11.088C22.7129 11.088 22.2749 11.202 21.8909 11.43C21.5189 11.646 21.2249 11.946 21.0089 12.33C20.8049 12.714 20.7029 13.164 20.7029 13.68C20.7029 14.184 20.8049 14.634 21.0089 15.03C21.2249 15.414 21.5189 15.72 21.8909 15.948C22.2749 16.164 22.7129 16.272 23.2049 16.272C23.6249 16.272 24.0089 16.2 24.3569 16.056C24.7169 15.9 25.0229 15.672 25.2749 15.372L26.5709 16.686C26.1629 17.166 25.6649 17.538 25.0769 17.802C24.5009 18.054 23.8769 18.18 23.2049 18.18ZM29.1718 18V5.76H31.1518V18H29.1718ZM27.1018 11.16V9.36H33.2218V11.16H27.1018ZM34.6785 18V9.36H36.6585V18H34.6785ZM35.6685 7.776C35.3325 7.776 35.0505 7.662 34.8225 7.434C34.6065 7.206 34.4985 6.924 34.4985 6.588C34.4985 6.252 34.6065 5.97 34.8225 5.742C35.0505 5.514 35.3325 5.4 35.6685 5.4C36.0165 5.4 36.2985 5.514 36.5145 5.742C36.7305 5.97 36.8385 6.252 36.8385 6.588C36.8385 6.924 36.7305 7.206 36.5145 7.434C36.2985 7.662 36.0165 7.776 35.6685 7.776ZM42.8393 18.18C41.9993 18.18 41.2373 17.982 40.5533 17.586C39.8693 17.178 39.3233 16.632 38.9153 15.948C38.5193 15.264 38.3213 14.502 38.3213 13.662C38.3213 12.822 38.5193 12.066 38.9153 11.394C39.3233 10.722 39.8693 10.188 40.5533 9.792C41.2373 9.384 41.9993 9.18 42.8393 9.18C43.6913 9.18 44.4593 9.378 45.1433 9.774C45.8273 10.17 46.3673 10.71 46.7633 11.394C47.1713 12.066 47.3753 12.822 47.3753 13.662C47.3753 14.502 47.1713 15.264 46.7633 15.948C46.3673 16.632 45.8273 17.178 45.1433 17.586C44.4593 17.982 43.6913 18.18 42.8393 18.18ZM42.8393 16.272C43.3313 16.272 43.7633 16.164 44.1353 15.948C44.5193 15.72 44.8133 15.408 45.0173 15.012C45.2333 14.616 45.3413 14.166 45.3413 13.662C45.3413 13.158 45.2333 12.714 45.0173 12.33C44.8013 11.946 44.5073 11.646 44.1353 11.43C43.7633 11.202 43.3313 11.088 42.8393 11.088C42.3593 11.088 41.9273 11.202 41.5433 11.43C41.1713 11.646 40.8773 11.946 40.6613 12.33C40.4573 12.714 40.3553 13.158 40.3553 13.662C40.3553 14.166 40.4573 14.616 40.6613 15.012C40.8773 15.408 41.1713 15.72 41.5433 15.948C41.9273 16.164 42.3593 16.272 42.8393 16.272ZM54.9438 18V13.014C54.9438 12.438 54.7578 11.964 54.3858 11.592C54.0258 11.22 53.5578 11.034 52.9818 11.034C52.5978 11.034 52.2558 11.118 51.9558 11.286C51.6558 11.454 51.4218 11.688 51.2538 11.988C51.0858 12.288 51.0018 12.63 51.0018 13.014L50.2278 12.582C50.2278 11.922 50.3718 11.34 50.6598 10.836C50.9478 10.32 51.3438 9.918 51.8478 9.63C52.3638 9.33 52.9398 9.18 53.5758 9.18C54.2238 9.18 54.7998 9.348 55.3038 9.684C55.8078 10.008 56.2038 10.434 56.4918 10.962C56.7798 11.478 56.9238 12.018 56.9238 12.582V18H54.9438ZM49.0218 18V9.36H51.0018V18H49.0218Z" fill="black"/>
<path d="M32.476 152V139.508H34.168V152H32.476ZM33.628 152V150.452H40.792V152H33.628ZM33.628 146.348V144.872H40.198V146.348H33.628ZM33.628 141.056V139.508H40.702V141.056H33.628ZM46.265 152.18C45.473 152.18 44.765 151.988 44.141 151.604C43.517 151.208 43.019 150.674 42.647 150.002C42.287 149.33 42.107 148.574 42.107 147.734C42.107 146.894 42.287 146.138 42.647 145.466C43.019 144.794 43.517 144.26 44.141 143.864C44.765 143.468 45.473 143.27 46.265 143.27C46.901 143.27 47.477 143.408 47.993 143.684C48.509 143.948 48.923 144.32 49.235 144.8C49.559 145.268 49.739 145.814 49.775 146.438V149.012C49.739 149.624 49.565 150.17 49.253 150.65C48.941 151.13 48.527 151.508 48.011 151.784C47.495 152.048 46.913 152.18 46.265 152.18ZM46.535 150.65C47.075 150.65 47.543 150.524 47.939 150.272C48.347 150.02 48.665 149.678 48.893 149.246C49.121 148.802 49.235 148.298 49.235 147.734C49.235 147.146 49.115 146.636 48.875 146.204C48.647 145.772 48.329 145.43 47.921 145.178C47.525 144.926 47.057 144.8 46.517 144.8C45.977 144.8 45.503 144.926 45.095 145.178C44.687 145.43 44.363 145.778 44.123 146.222C43.895 146.654 43.781 147.152 43.781 147.716C43.781 148.292 43.895 148.802 44.123 149.246C44.363 149.678 44.687 150.02 45.095 150.272C45.515 150.524 45.995 150.65 46.535 150.65ZM50.765 152H49.127V149.696L49.433 147.608L49.127 145.538V139.148H50.765V152ZM53.1415 152V143.45H54.7615V152H53.1415ZM53.9515 141.74C53.6515 141.74 53.4055 141.644 53.2135 141.452C53.0215 141.248 52.9255 140.996 52.9255 140.696C52.9255 140.408 53.0215 140.168 53.2135 139.976C53.4055 139.772 53.6515 139.67 53.9515 139.67C54.2515 139.67 54.4975 139.772 54.6895 139.976C54.8815 140.168 54.9775 140.408 54.9775 140.696C54.9775 140.996 54.8815 141.248 54.6895 141.452C54.4975 141.644 54.2515 141.74 53.9515 141.74ZM58.4629 152V139.868H60.0829V152H58.4629ZM56.3569 144.926V143.45H62.1889V144.926H56.3569Z" fill="#747474"/>
<g clip-path="url(#clip0_2_105)">
<path d="M8.04995 143.2C10.58 143.2 12.65 141.13 12.65 138.6C12.65 136.07 10.58 134 8.04995 134C5.51995 134 3.44995 136.07 3.44995 138.6C3.44995 141.13 5.51995 143.2 8.04995 143.2ZM8.04995 136.3C9.31495 136.3 10.35 137.335 10.35 138.6C10.35 139.865 9.31495 140.9 8.04995 140.9C6.78495 140.9 5.74995 139.865 5.74995 138.6C5.74995 137.335 6.78495 136.3 8.04995 136.3Z" fill="#747474"/>
<path d="M21.965 144.235C20.7 142.97 18.4 142.97 17.135 144.235L14.145 147.225C12.65 145.385 10.465 144.35 8.05 144.35C3.565 144.35 0 147.915 0 152.4V153.55H9.2V157H14.03L21.965 149.065C23.345 147.8 23.345 145.5 21.965 144.235ZM8.05 146.65C9.775 146.65 11.385 147.455 12.535 148.835L10.12 151.25H2.415C2.99 148.605 5.29 146.65 8.05 146.65ZM13.11 154.7H11.5V153.09L16.33 148.26L17.94 149.87L13.11 154.7ZM20.355 147.455L19.55 148.26L17.94 146.65L18.745 145.845C19.205 145.385 19.895 145.385 20.355 145.845C20.815 146.305 20.815 146.995 20.355 147.455Z" fill="#747474"/>
</g>
<path d="M32.476 323V310.508H34.168V323H32.476ZM33.628 323V321.452H40.792V323H33.628ZM33.628 317.348V315.872H40.198V317.348H33.628ZM33.628 312.056V310.508H40.702V312.056H33.628ZM46.265 323.18C45.473 323.18 44.765 322.988 44.141 322.604C43.517 322.208 43.019 321.674 42.647 321.002C42.287 320.33 42.107 319.574 42.107 318.734C42.107 317.894 42.287 317.138 42.647 316.466C43.019 315.794 43.517 315.26 44.141 314.864C44.765 314.468 45.473 314.27 46.265 314.27C46.901 314.27 47.477 314.408 47.993 314.684C48.509 314.948 48.923 315.32 49.235 315.8C49.559 316.268 49.739 316.814 49.775 317.438V320.012C49.739 320.624 49.565 321.17 49.253 321.65C48.941 322.13 48.527 322.508 48.011 322.784C47.495 323.048 46.913 323.18 46.265 323.18ZM46.535 321.65C47.075 321.65 47.543 321.524 47.939 321.272C48.347 321.02 48.665 320.678 48.893 320.246C49.121 319.802 49.235 319.298 49.235 318.734C49.235 318.146 49.115 317.636 48.875 317.204C48.647 316.772 48.329 316.43 47.921 316.178C47.525 315.926 47.057 315.8 46.517 315.8C45.977 315.8 45.503 315.926 45.095 316.178C44.687 316.43 44.363 316.778 44.123 317.222C43.895 317.654 43.781 318.152 43.781 318.716C43.781 319.292 43.895 319.802 44.123 320.246C44.363 320.678 44.687 321.02 45.095 321.272C45.515 321.524 45.995 321.65 46.535 321.65ZM50.765 323H49.127V320.696L49.433 318.608L49.127 316.538V310.148H50.765V323ZM53.1415 323V314.45H54.7615V323H53.1415ZM53.9515 312.74C53.6515 312.74 53.4055 312.644 53.2135 312.452C53.0215 312.248 52.9255 311.996 52.9255 311.696C52.9255 311.408 53.0215 311.168 53.2135 310.976C53.4055 310.772 53.6515 310.67 53.9515 310.67C54.2515 310.67 54.4975 310.772 54.6895 310.976C54.8815 311.168 54.9775 311.408 54.9775 311.696C54.9775 311.996 54.8815 312.248 54.6895 312.452C54.4975 312.644 54.2515 312.74 53.9515 312.74ZM58.4629 323V310.868H60.0829V323H58.4629ZM56.3569 315.926V314.45H62.1889V315.926H56.3569Z" fill="#747474"/>
<g clip-path="url(#clip1_2_105)">
<path d="M8.04995 314.2C10.58 314.2 12.65 312.13 12.65 309.6C12.65 307.07 10.58 305 8.04995 305C5.51995 305 3.44995 307.07 3.44995 309.6C3.44995 312.13 5.51995 314.2 8.04995 314.2ZM8.04995 307.3C9.31495 307.3 10.35 308.335 10.35 309.6C10.35 310.865 9.31495 311.9 8.04995 311.9C6.78495 311.9 5.74995 310.865 5.74995 309.6C5.74995 308.335 6.78495 307.3 8.04995 307.3Z" fill="#747474"/>
<path d="M21.965 315.235C20.7 313.97 18.4 313.97 17.135 315.235L14.145 318.225C12.65 316.385 10.465 315.35 8.05 315.35C3.565 315.35 0 318.915 0 323.4V324.55H9.2V328H14.03L21.965 320.065C23.345 318.8 23.345 316.5 21.965 315.235ZM8.05 317.65C9.775 317.65 11.385 318.455 12.535 319.835L10.12 322.25H2.415C2.99 319.605 5.29 317.65 8.05 317.65ZM13.11 325.7H11.5V324.09L16.33 319.26L17.94 320.87L13.11 325.7ZM20.355 318.455L19.55 319.26L17.94 317.65L18.745 316.845C19.205 316.385 19.895 316.385 20.355 316.845C20.815 317.305 20.815 317.995 20.355 318.455Z" fill="#747474"/>
</g>
<path d="M32.476 493V480.508H34.168V493H32.476ZM33.628 493V491.452H40.792V493H33.628ZM33.628 487.348V485.872H40.198V487.348H33.628ZM33.628 482.056V480.508H40.702V482.056H33.628ZM46.265 493.18C45.473 493.18 44.765 492.988 44.141 492.604C43.517 492.208 43.019 491.674 42.647 491.002C42.287 490.33 42.107 489.574 42.107 488.734C42.107 487.894 42.287 487.138 42.647 486.466C43.019 485.794 43.517 485.26 44.141 484.864C44.765 484.468 45.473 484.27 46.265 484.27C46.901 484.27 47.477 484.408 47.993 484.684C48.509 484.948 48.923 485.32 49.235 485.8C49.559 486.268 49.739 486.814 49.775 487.438V490.012C49.739 490.624 49.565 491.17 49.253 491.65C48.941 492.13 48.527 492.508 48.011 492.784C47.495 493.048 46.913 493.18 46.265 493.18ZM46.535 491.65C47.075 491.65 47.543 491.524 47.939 491.272C48.347 491.02 48.665 490.678 48.893 490.246C49.121 489.802 49.235 489.298 49.235 488.734C49.235 488.146 49.115 487.636 48.875 487.204C48.647 486.772 48.329 486.43 47.921 486.178C47.525 485.926 47.057 485.8 46.517 485.8C45.977 485.8 45.503 485.926 45.095 486.178C44.687 486.43 44.363 486.778 44.123 487.222C43.895 487.654 43.781 488.152 43.781 488.716C43.781 489.292 43.895 489.802 44.123 490.246C44.363 490.678 44.687 491.02 45.095 491.272C45.515 491.524 45.995 491.65 46.535 491.65ZM50.765 493H49.127V490.696L49.433 488.608L49.127 486.538V480.148H50.765V493ZM53.1415 493V484.45H54.7615V493H53.1415ZM53.9515 482.74C53.6515 482.74 53.4055 482.644 53.2135 482.452C53.0215 482.248 52.9255 481.996 52.9255 481.696C52.9255 481.408 53.0215 481.168 53.2135 480.976C53.4055 480.772 53.6515 480.67 53.9515 480.67C54.2515 480.67 54.4975 480.772 54.6895 480.976C54.8815 481.168 54.9775 481.408 54.9775 481.696C54.9775 481.996 54.8815 482.248 54.6895 482.452C54.4975 482.644 54.2515 482.74 53.9515 482.74ZM58.4629 493V480.868H60.0829V493H58.4629ZM56.3569 485.926V484.45H62.1889V485.926H56.3569Z" fill="#747474"/>
<g clip-path="url(#clip2_2_105)">
<path d="M8.04995 484.2C10.58 484.2 12.65 482.13 12.65 479.6C12.65 477.07 10.58 475 8.04995 475C5.51995 475 3.44995 477.07 3.44995 479.6C3.44995 482.13 5.51995 484.2 8.04995 484.2ZM8.04995 477.3C9.31495 477.3 10.35 478.335 10.35 479.6C10.35 480.865 9.31495 481.9 8.04995 481.9C6.78495 481.9 5.74995 480.865 5.74995 479.6C5.74995 478.335 6.78495 477.3 8.04995 477.3Z" fill="#747474"/>
<path d="M21.965 485.235C20.7 483.97 18.4 483.97 17.135 485.235L14.145 488.225C12.65 486.385 10.465 485.35 8.05 485.35C3.565 485.35 0 488.915 0 493.4V494.55H9.2V498H14.03L21.965 490.065C23.345 488.8 23.345 486.5 21.965 485.235ZM8.05 487.65C9.775 487.65 11.385 488.455 12.535 489.835L10.12 492.25H2.415C2.99 489.605 5.29 487.65 8.05 487.65ZM13.11 495.7H11.5V494.09L16.33 489.26L17.94 490.87L13.11 495.7ZM20.355 488.455L19.55 489.26L17.94 487.65L18.745 486.845C19.205 486.385 19.895 486.385 20.355 486.845C20.815 487.305 20.815 487.995 20.355 488.455Z" fill="#747474"/>
</g>
<defs>
<clipPath id="clip0_2_105">
<rect width="23" height="23" fill="white" transform="translate(0 134)"/>
</clipPath>
<clipPath id="clip1_2_105">
<rect width="23" height="23" fill="white" transform="translate(0 305)"/>
</clipPath>
<clipPath id="clip2_2_105">
<rect width="23" height="23" fill="white" transform="translate(0 475)"/>
</clipPath>
</defs>
</svg>
